<svg id="visual" viewBox="0 0 900 600" width="900" height="600" xmlns="http://www.w3.org/2000/svg" xmlns:xlink="http://www.w3.org/1999/xlink" version="1.1"><rect x="0" y="0" width="900" height="600" fill="#efefef"></rect><g transform="translate(470.73793551192927 292.034412135774)"><path d="M53.2 -119.5C75.1 -79.5 103.4 -77.7 128.7 -64.2C154.1 -50.7 176.5 -25.3 204.7 16.2C232.8 57.8 266.7 115.7 245.8 137C225 158.4 149.5 143.3 99.4 169.9C49.3 196.4 24.7 264.7 3.3 259C-18 253.2 -36 173.4 -64 134C-92 94.7 -130 95.8 -183.5 80.3C-237 64.7 -306 32.3 -291.9 8.2C-277.7 -16 -180.4 -32 -128.8 -50.9C-77.3 -69.8 -71.4 -91.6 -57.5 -136.3C-43.7 -181 -21.8 -248.5 -3.1 -243.1C15.6 -237.7 31.3 -159.5 53.2 -119.5" fill="#afcbfa"></path></g></svg>