<svg id="visual" viewBox="0 0 960 300" width="960" height="300" xmlns="http://www.w3.org/2000/svg" xmlns:xlink="http://www.w3.org/1999/xlink" version="1.1"><rect x="0" y="0" width="960" height="300" fill="#efefef"></rect><path d="M0 211L40 213C80 215 160 219 240 219.3C320 219.7 400 216.3 480 217.5C560 218.7 640 224.3 720 228.3C800 232.3 880 234.7 920 235.8L960 237L960 301L920 301C880 301 800 301 720 301C640 301 560 301 480 301C400 301 320 301 240 301C160 301 80 301 40 301L0 301Z" fill="#efefef"></path><path d="M0 230L40 234C80 238 160 246 240 248.7C320 251.3 400 248.7 480 246.2C560 243.7 640 241.3 720 241.8C800 242.3 880 245.7 920 247.3L960 249L960 301L920 301C880 301 800 301 720 301C640 301 560 301 480 301C400 301 320 301 240 301C160 301 80 301 40 301L0 301Z" fill="#dbe3f3"></path><path d="M0 243L40 241.5C80 240 160 237 240 238.5C320 240 400 246 480 250.8C560 255.7 640 259.3 720 256.3C800 253.3 880 243.7 920 238.8L960 234L960 301L920 301C880 301 800 301 720 301C640 301 560 301 480 301C400 301 320 301 240 301C160 301 80 301 40 301L0 301Z" fill="#c5d7f7"></path><path d="M0 269L40 269.5C80 270 160 271 240 268.8C320 266.7 400 261.3 480 261.8C560 262.3 640 268.7 720 272.5C800 276.3 880 277.7 920 278.3L960 279L960 301L920 301C880 301 800 301 720 301C640 301 560 301 480 301C400 301 320 301 240 301C160 301 80 301 40 301L0 301Z" fill="#afcbfa"></path></svg>